#!OML:ASF X:\für Bonn\!DataBase\2005_08_10_Bjorn_Final\c3d\bjorn.ASF
:FULLY-SPECIFIED
:DEGREES
435
root 0.635393 18.9534 11.6916 -181.546 -5.65659 178.468
lowerback 1.45577 2.53008 -3.60118
upperback 11.9786 2.31107 -2.7867
thorax 12.0016 0.290369 -0.95255
lowerneck 1.58545 -2.01197 2.72741
upperneck 21.1295 -4.80727 -0.165668
head 6.08763 -2.81689 -0.80733
rclavicle -1.27222e-014 -4.29375e-014
rhumerus -377.608 -3.08039 271.929
rradius 45.7541
rwrist 7.49575
rhand -20.6532 21.1788
rfingers 7.12502
rthumb 5.70919 -8.72424
lclavicle -1.27222e-014 -4.29375e-014
lhumerus 0.384888 -35.4564 78.4284
lradius 50.6967
lwrist -2.16284
lhand -28.9235 -11.899
lfingers 7.12502
lthumb -2.27784 18.0686
rfemur -22.8819 -8.02616 10.5957
rtibia 34.2816
rfoot -16.7879 11.1294
rtoes -2.24161
lfemur -5.66508 7.7827 -19.495
ltibia 30.517
lfoot -18.6906 -11.4754
ltoes -7.8323
436
root 0.618477 18.9557 11.7251 -181.595 -5.72761 178.513
lowerback 1.48579 2.56428 -3.76741
upperback 12.0173 2.35395 -2.82421
thorax 12.0238 0.289777 -0.900335
lowerneck 1.58109 -2.21174 2.64388
upperneck 20.7237 -5.02087 -0.0400267
head 5.96116 -2.90056 -0.75339
rclavicle 1.51076e-014 1.19271e-014
rhumerus -377.553 -3.47649 271.83
rradius 44.6112
rwrist 7.63007
rhand -20.1072 20.7905
rfingers 7.12502
rthumb 6.23629 -9.09772
lclavicle 1.51076e-014 1.19271e-014
lhumerus 0.0381211 -35.0305 79.306
lradius 49.913
lwrist 0.251158
lhand -27.6548 -11.1253
lfingers 7.12502
lthumb -1.05247 18.8519
rfemur -22.7082 -7.9419 10.6275
rtibia 34.3184
rfoot -16.4362 10.9879
rtoes -2.12942
lfemur -5.78515 7.87876 -19.5044
ltibia 30.6146
lfoot -18.6336 -11.5728
ltoes -7.96113
437
root 0.601968 18.9561 11.7564 -181.669 -5.79951 178.544
lowerback 1.53583 2.60097 -3.95035
upperback 12.0535 2.39881 -2.8564
thorax 12.0295 0.28809 -0.833293
lowerneck 1.62631 -2.42051 2.62739
upperneck 20.2569 -5.22773 0.0134738
head 5.80442 -2.98096 -0.730375
rclavicle 1.03368e-014 -3.57812e-014
rhumerus -377.521 -3.93905 271.74
rradius 43.4617
rwrist 7.67468
rhand -19.4053 20.2222
rfingers 7.12502
rthumb 6.91393 -9.64494
lclavicle 1.03368e-014 -3.57812e-014
lhumerus -0.345858 -34.5262 80.2148
lradius 49.0576
lwrist 2.64286
lhand -26.4866 -10.3759
lfingers 7.12502
lthumb 0.0757795 19.6038
rfemur -22.4971 -7.85979 10.65
rtibia 34.395
rfoot -16.0754 10.887
rtoes -2.41971
lfemur -5.85834 7.95497 -19.5208
ltibia 30.6959
lfoot -18.5234 -11.7235
ltoes -7.66644
438
root 0.586107 18.9566 11.7865 -181.74 -5.86086 178.56
lowerback 1.58103 2.63708 -4.13888
upperback 12.0984 2.44171 -2.91307
thorax 12.0497 0.284487 -0.790562
lowerneck 1.68578 -2.63168 2.64399
upperneck 19.7209 -5.4311 0.0852499
head 5.62415 -3.05512 -0.704793
rclavicle -2.98177e-014 4.05521e-014
rhumerus -377.473 -4.47487 271.608
rradius 42.2949
rwrist 7.74002
rhand -18.63 19.4796
rfingers 7.12502
rthumb 7.66228 -10.3616
lclavicle -2.98177e-014 4.05521e-014
lhumerus -0.714625 -33.891 81.0752
lradius 48.1257
lwrist 5.07732
lhand -25.2225 -9.80565
lfingers 7.12502
lthumb 1.29667 20.1702
rfemur -22.2886 -7.83685 10.6717
rtibia 34.5095
rfoot -15.6951 10.8907
rtoes -3.02352
lfemur -5.92415 7.99311 -19.5653
ltibia 30.7646
lfoot -18.4367 -11.7583
ltoes -7.57526
439
root 0.570289 18.9576 11.8151 -181.818 -5.905 178.558
lowerback 1.62865 2.67748 -4.3517
upperback 12.14 2.49088 -2.96398
thorax 12.0631 0.28111 -0.727734
lowerneck 1.77691 -2.86707 2.66956
upperneck 19.1286 -5.65214 0.111734
head 5.41998 -3.14006 -0.693053
rclavicle -1.90833e-014 -7.07673e-014
rhumerus -377.419 -5.10444 271.5
rradius 41.0851
rwrist 7.81808
rhand -17.7594 18.6974
rfingers 7.12502
rthumb 8.50255 -11.1114
lclavicle -1.90833e-014 -7.07673e-014
lhumerus -1.09805 -33.0639 81.9869
lradius 47.082
lwrist 7.3466
lhand -23.9538 -9.34667
lfingers 7.12502
lthumb 2.52194 20.6182
rfemur -22.0719 -7.81254 10.6834
rtibia 34.66
rfoot -15.3647 10.9624
rtoes -3.95684
lfemur -5.96343 8.01191 -19.6263
ltibia 30.8261
lfoot -18.3153 -11.788
ltoes -7.27976
440
root 0.555264 18.9595 11.8428 -181.885 -5.95979 178.592
lowerback 1.67099 2.71088 -4.52104
upperback 12.1773 2.53034 -3.01162
thorax 12.0762 0.278255 -0.685921
lowerneck 1.93801 -3.12397 2.7183
upperneck 18.4067 -5.88163 0.120082
head 5.16341 -3.22774 -0.685667
rclavicle 1.98785e-014 1.43125e-014
rhumerus -377.359 -5.85892 271.381
rradius 39.8779
rwrist 8.03405
rhand -16.9173 17.8939
rfingers 7.12502
rthumb 9.31516 -11.8803
lclavicle 1.98785e-014 1.43125e-014
lhumerus -1.47414 -32.1353 82.875
lradius 45.9907
lwrist 9.48923
lhand -22.6693 -8.92296
lfingers 7.12502
lthumb 3.76248 21.0236
rfemur -21.8579 -7.81738 10.7488
rtibia 34.8225
rfoot -15.0141 11.0088
rtoes -4.9875
lfemur -6.01271 8.0279 -19.6504
ltibia 30.8696
lfoot -18.2051 -11.7862
ltoes -7.03047
441
root 0.540866 18.9607 11.869 -181.952 -6.01277 178.622
lowerback 1.70524 2.74178 -4.69405
upperback 12.2094 2.56821 -3.07117
thorax 12.0889 0.275163 -0.654993
lowerneck 2.05212 -3.38775 2.77989
upperneck 17.7375 -6.13455 0.153696
head 4.93272 -3.32626 -0.675073
rclavicle 1.07344e-014 4.77083e-014
rhumerus -377.316 -6.68814 271.246
rradius 38.6332
rwrist 8.30844
rhand -16.0984 17.1453
rfingers 7.12502
rthumb 10.1052 -12.592
lclavicle 1.07344e-014 4.77083e-014
lhumerus -1.85325 -31.0385 83.7506
lradius 44.8189
lwrist 11.4255
lhand -21.1662 -8.03574
lfingers 7.12502
lthumb 5.21392 21.8801
rfemur -21.636 -7.7912 10.8153
rtibia 35.0139
rfoot -14.6535 11.0238
rtoes -5.58927
lfemur -6.05857 8.03619 -19.6758
ltibia 30.9179
lfoot -18.0739 -11.7783
ltoes -6.80527
442
root 0.526678 18.9664 11.8945 -182.012 -6.06785 178.671
lowerback 1.76249 2.77643 -4.82832
upperback 12.2211 2.61093 -3.13834
thorax 12.065 0.281416 -0.652891
lowerneck 2.30337 -3.66304 2.86082
upperneck 16.5589 -6.40078 0.25513
head 5.05744 -3.43291 -0.682748
rclavicle 2.22639e-014 -1.19271e-014
rhumerus -377.331 -7.62805 271.116
rradius 37.4042
rwrist 8.66769
rhand -15.3303 16.4716
rfingers 7.12502
rthumb 10.8462 -13.2283
lclavicle 2.22639e-014 -1.19271e-014
lhumerus -2.24058 -29.9214 84.5737
lradius 43.5538
lwrist 13.2382
lhand -19.9473 -7.59172
lfingers 7.12502
lthumb 6.39068 22.2919
rfemur -21.4144 -7.73587 10.9088
rtibia 35.2243
rfoot -14.2754 11.0031
rtoes -5.6415
lfemur -6.10537 7.97696 -19.6929
ltibia 30.9605
lfoot -17.9241 -11.7262
ltoes -6.38774
